<svg width="24" height="24" viewBox="0 0 24 24" fill="none" xmlns="http://www.w3.org/2000/svg">
<path d="M20.2989 12.157C20.2989 11.4604 20.2423 10.9521 20.12 10.425H12.1657V13.569H16.8347C16.7406 14.3503 16.2323 15.527 15.1027 16.3177L15.0868 16.4229L17.6018 18.3713L17.7761 18.3887C19.3763 16.9108 20.2989 14.7363 20.2989 12.157Z" fill="#4285F4"/>
<path d="M12.167 20.4412C14.4544 20.4412 16.3747 19.6881 17.7774 18.3891L15.104 16.3181C14.3885 16.817 13.4284 17.1653 12.167 17.1653C9.9266 17.1653 8.0251 15.6874 7.34727 13.6447L7.24791 13.6531L4.63276 15.677L4.59856 15.7721C5.99173 18.5397 8.85342 20.4412 12.167 20.4412Z" fill="#34A853"/>
<path d="M7.34665 13.6447C7.1678 13.1176 7.06429 12.5527 7.06429 11.9691C7.06429 11.3855 7.1678 10.8207 7.33724 10.2935L7.33251 10.1813L4.6846 8.12489L4.59797 8.1661C4.02378 9.31454 3.69431 10.6042 3.69431 11.9691C3.69431 13.3341 4.02378 14.6237 4.59797 15.7721L7.34665 13.6447Z" fill="#FBBC05"/>
<path d="M12.1669 6.77286C13.7578 6.77286 14.8309 7.46003 15.4427 8.03429L17.8337 5.69976C16.3653 4.33483 14.4543 3.49703 12.1669 3.49703C8.85339 3.49703 5.99172 5.39852 4.59856 8.16602L7.33783 10.2935C8.02507 8.25078 9.92655 6.77286 12.1669 6.77286Z" fill="#EB4335"/>
</svg>
